<!--?xml version="1.0" encoding="utf-8"?-->
<!-- Generator: Adobe Illustrator 18.1.1, SVG Export Plug-In . SVG Version: 6.00 Build 0)  -->

<svg version="1.1" id="_x31_0" xmlns="http://www.w3.org/2000/svg" xmlns:xlink="http://www.w3.org/1999/xlink" x="0px" y="0px" viewBox="0 0 512 512" style="width: 512px; height: 512px; opacity: 1;" xml:space="preserve">
<style type="text/css">
	.st0{fill:#374149;}
</style>
<g>
	<path class="st0" d="M255.969,266.873c22.562,0,43.602-8.882,59.282-24.882c15.199-15.598,23.598-36.238,23.598-58
		c0-45.68-37.118-82.879-82.879-82.879c-45.68,0-82.879,37.199-82.879,82.879c0,21.762,8.398,42.402,23.68,58
		C212.45,257.99,233.488,266.873,255.969,266.873z M206.805,233.967c13.676-8.633,31.406-18.133,32.683-18.375h0.543h0.004l0,0
		h0.176v-14.879c-1.762-0.961-2.961-3.281-3.84-5.519c-0.715-2.004-1.098-3.89-1.23-4.852c0.004-0.054-0.008-0.152,0-0.199
		c-0.012,0.004-0.02,0-0.027,0.004c-0.004-0.042-0.02-0.121-0.024-0.156c-5.679,1.844-6.48-8.797-6.801-11.438
		c-0.05-0.558-0.019-1.058,0.043-1.531c0.016-0.098,0.019-0.199,0.039-0.297c0.172-0.938,0.519-1.691,0.894-2.234
		c0.031-0.039,0.058-0.09,0.09-0.129c0.184-0.25,0.371-0.465,0.535-0.61c-0.16-0.398-0.402-1.039-0.64-1.68
		c-0.719-3.121-1.039-5.601-1.039-7.679c0-4.481,1.598-7.52,4.558-12.879c4.32-8,15.359-15.602,21.762-15.523h1.438
		c7.762,0.562,11.922,4.402,15.199,10.242c2,0,5.523,2.64,8.082,5.281c1.121,1.118,2.16,2.238,2.8,3.118
		c1.758,2.562,2.161,6.801,1.84,10.562c-0.16,2.641-0.64,5.117-1.199,6.878c-0.16,0.641-0.402,1.282-0.562,1.68
		c0.719,0.641,1.84,2.32,1.52,4.801c-0.238,2.641-1.039,13.282-6.719,11.438v0.082c-0.238,1.84-1.199,8.399-5.121,10.641v14.879
		h0.722c1.187,0.222,16.558,8.449,29.707,16.539c1,0.629,2.015,1.258,2.984,1.882c-13.195,13.027-30.625,20.219-49.254,20.219
		c-17.102,0-33.207-6.18-45.965-17.344C208.926,235.932,207.832,234.998,206.805,233.967z" style="fill: rgb(75, 75, 75);"></path>
	<path class="st0" d="M472,22.654H40c-22.09,0-40,17.91-40,40v304c0,22.094,17.91,40,40,40h177.652h0.93v31.102
		c0,13.875-10.657,25.426-24.485,26.543l-74.766,6.038c-2.074,0.168-3.676,1.902-3.676,3.985v11.027c0,2.207,1.79,3.996,3.996,3.996
		h272.696c2.21,0,4-1.789,4-3.996v-11.027c0-2.082-1.602-3.817-3.676-3.985l-74.766-6.038
		c-13.828-1.118-24.485-12.668-24.485-26.543v-31.102H472c22.094,0,40-17.906,40-40v-304C512,40.565,494.094,22.654,472,22.654z
		 M472,62.654v303.234v0.766H41.16H40v-304h429.523H472z" style="fill: rgb(75, 75, 75);"></path>
	<path class="st0" d="M167.844,319.752v0.16h106.48v-32h-106.48v31.742V319.752L167.844,319.752z M266.324,295.912v16h-90.48v-16
		h90.086H266.324z" style="fill: rgb(75, 75, 75);"></path>
	<polygon class="st0" points="294.461,319.654 294.461,319.752 294.461,319.752 294.461,319.912 344.156,319.912 344.156,287.912 
		294.461,287.912 	" style="fill: rgb(75, 75, 75);"></polygon>
</g>
</svg>
